<svg width="30" height="25" viewBox="0 0 30 25" fill="none" xmlns="http://www.w3.org/2000/svg">
<path d="M18.3414 9.51367H14.8916" stroke="#297FFF" stroke-width="1.76471" stroke-miterlimit="10" stroke-linecap="round" stroke-linejoin="bevel"/>
<path d="M23.5161 18.9232L14.8916 9.51367" stroke="#297FFF" stroke-width="1.76471" stroke-miterlimit="10" stroke-linecap="round" stroke-linejoin="bevel"/>
<path d="M18.4097 18.9237C18.4097 21.3962 20.6865 23.4567 23.5154 23.4567C26.3442 23.4567 28.6211 21.3962 28.6211 18.9237C28.6211 16.4511 26.3442 14.3906 23.5154 14.3906C21.6525 14.3906 19.9966 15.2835 19.0996 16.6571" stroke="#297FFF" stroke-width="1.76471" stroke-miterlimit="10" stroke-linecap="round" stroke-linejoin="bevel"/>
<path d="M6.8192 15.6273C6.54321 15.5586 6.19823 15.5586 5.85325 15.5586C3.43839 15.5586 1.4375 17.3443 1.4375 19.5422C1.4375 21.74 3.43839 23.5258 5.85325 23.5258C8.26811 23.5258 10.269 21.74 10.269 19.5422" stroke="#297FFF" stroke-width="1.76471" stroke-miterlimit="10" stroke-linecap="round" stroke-linejoin="bevel"/>
<path d="M14.4918 5.01952C15.5396 4.67015 16.134 3.62884 15.8193 2.69368C15.5046 1.75853 14.4001 1.28366 13.3523 1.63303C12.3045 1.9824 11.7102 3.02372 12.0248 3.95887C12.3395 4.89402 13.444 5.36889 14.4918 5.01952Z" stroke="#297FFF" stroke-width="1.76471" stroke-miterlimit="10" stroke-linecap="round" stroke-linejoin="bevel"/>
<path d="M11.9262 6.62891C10.1323 8.55202 8.7524 11.162 8.54541 12.1922" stroke="#297FFF" stroke-width="1.76471" stroke-miterlimit="10" stroke-linecap="round" stroke-linejoin="bevel"/>
<path d="M11.7874 15.2148C9.78655 15.833 7.78566 19.4732 5.50879 19.0611L11.7874 15.2148Z" fill="#297FFF"/>
<path d="M11.7874 15.2148C9.78655 15.833 7.78566 19.4732 5.50879 19.0611" stroke="#297FFF" stroke-width="1.76471" stroke-miterlimit="10" stroke-linecap="round" stroke-linejoin="round"/>
<path d="M8.61426 12.2603C10.2702 12.0543 13.03 13.0158 13.927 14.2521C15.0999 15.9005 13.927 18.0984 12.685 19.5407" stroke="#297FFF" stroke-width="1.76471" stroke-miterlimit="10" stroke-linecap="round" stroke-linejoin="round"/>
<path d="M15.9955 14.7343C16.3384 14.7343 16.6164 14.4576 16.6164 14.1162C16.6164 13.7748 16.3384 13.498 15.9955 13.498C15.6525 13.498 15.3745 13.7748 15.3745 14.1162C15.3745 14.4576 15.6525 14.7343 15.9955 14.7343Z" fill="#297FFF"/>
</svg>

